<svg width="46" height="38" viewBox="0 0 46 38" fill="none" xmlns="http://www.w3.org/2000/svg">
<path d="M33.622 22.2619L33.6184 22.2692C33.622 22.2656 33.622 22.2619 33.622 22.2619C32.5635 22.3168 31.4575 22.3643 30.3113 22.4046C29.866 22.4192 29.4936 22.4997 29.0885 22.6789C28.6833 22.8581 28.457 23.0666 28.1723 23.341C26.829 24.6578 24.9966 25.4698 22.9707 25.4735C20.9448 25.4661 19.1124 24.6541 17.7691 23.341C17.4881 23.063 17.2034 22.8289 16.8529 22.6789C16.5062 22.5289 16.0791 22.4192 15.6301 22.4046C14.484 22.3643 13.3779 22.3168 12.3194 22.2619C12.3194 22.2656 12.323 22.2692 12.323 22.2692L12.3194 22.2619L11.509 22.2144V22.4192C12.0931 22.657 12.5895 23.0666 12.9399 23.5787C12.9436 23.5787 12.9472 23.5787 12.9472 23.5787V23.5751C14.9037 27.1012 18.6525 29.4861 22.9598 29.5007C22.9634 29.5007 22.9671 29.5007 22.9707 29.5007C22.9744 29.5007 22.978 29.5007 22.9817 29.5007C27.2889 29.4897 31.0377 27.1012 32.9942 23.5751V23.5787C32.9942 23.5787 32.9978 23.5787 33.0015 23.5787C33.3519 23.063 33.8483 22.657 34.4324 22.4192V22.2144L33.622 22.2619Z" fill="white"/>
<path d="M36.5459 17.1995C34.5018 16.7752 34.0674 14.8804 34.0674 14.8804C32.6877 10.0777 28.2673 6.56259 23.0292 6.56259C23.0219 6.56259 23.011 6.56259 23.0037 6.56259C22.9963 6.56259 22.9854 6.56259 22.9781 6.56259C17.74 6.56259 13.3233 10.0777 11.9399 14.8804C11.9399 14.8804 11.5055 16.7752 9.46136 17.1995C3.72687 17.6165 0 18.2968 0 19.0613C0 19.9282 4.80003 20.6854 11.8814 21.0767C11.8851 21.095 16.2252 21.2816 16.2179 21.2596C18.3533 21.3255 20.6237 21.3621 22.9744 21.3621C22.9817 21.3621 22.9927 21.3621 23 21.3621C23.0073 21.3621 23.0182 21.3621 23.0256 21.3621C25.3763 21.3621 27.6467 21.3255 29.7821 21.2596C29.7748 21.2779 34.1113 21.095 34.1186 21.0767C41.2036 20.6854 46 19.9282 46 19.0613C46.0036 18.2968 42.2768 17.6165 36.5459 17.1995ZM30.0194 17.6896C29.5777 18.3334 28.9754 18.4504 28.7564 18.4907C26.8838 18.8053 24.9602 18.9699 23 18.9735C21.0398 18.9735 19.1162 18.8089 17.2436 18.4907C17.0246 18.4504 16.4223 18.3334 15.9806 17.6896C15.539 17.0458 15.7251 16.2704 15.7507 16.1789C16.5902 12.9637 19.5031 10.5935 22.9744 10.5935C22.9817 10.5935 22.9927 10.5935 23 10.5935C23.0073 10.5935 23.0182 10.5935 23.0256 10.5935C26.4933 10.5935 29.4098 12.9637 30.2493 16.1789C30.2749 16.2667 30.461 17.0458 30.0194 17.6896Z" fill="white"/>
<path d="M23.5439 1.25145C23.2482 1.01004 22.8321 0.995407 22.5182 1.21488L0.78479 17.0897L22.5547 0.161427C22.8467 -0.0507252 23.2446 -0.054383 23.5402 0.154112C23.5402 0.154112 45.6824 17.0056 45.7408 17.0532C45.8503 17.1446 45.854 17.3056 45.7956 17.4007C45.7664 17.4446 45.6751 17.5433 45.5291 17.5141C44.5363 17.1995 43.6347 17.0276 43.2477 16.9508C42.9192 16.8886 42.8572 16.8447 42.6235 16.6618C42.3899 16.4789 23.5439 1.25145 23.5439 1.25145Z" fill="white"/>
<path d="M45.5802 17.5177C45.7233 17.5177 45.8394 17.4015 45.8394 17.258C45.8394 17.1146 45.7233 16.9983 45.5802 16.9983C45.4371 16.9983 45.321 17.1146 45.321 17.258C45.321 17.4015 45.4371 17.5177 45.5802 17.5177Z" fill="white"/>
<path d="M23.6022 36.3188C23.292 36.5383 22.8722 36.5237 22.5765 36.2823C22.5765 36.2823 4.205 22.0973 3.97504 21.918C3.74143 21.7388 3.67937 21.6949 3.35085 21.6291C3.00408 21.5632 1.5002 21.2011 1.12422 21.1097C1.09867 21.0987 1.07312 21.0914 1.04392 21.0914C1.03662 21.0914 1.02932 21.0914 1.02567 21.0914C0.88696 21.0914 0.773804 21.2048 0.773804 21.3438C0.773804 21.4133 0.803005 21.4754 0.846808 21.523L0.854108 21.5303C0.868709 21.5449 0.88331 21.5559 0.901561 21.5632L22.5802 37.3101C22.8758 37.5186 23.2737 37.5186 23.5657 37.3028L44.8647 21.4864L23.6022 36.3188Z" fill="white"/>
</svg>
