<svg width="37" height="37" viewBox="0 0 37 37" fill="none" xmlns="http://www.w3.org/2000/svg">
<path d="M18.5836 0.130432C18.5738 0.140276 18.5541 0.140276 18.5246 0.140276C8.56294 0.140276 0.461731 8.24148 0.461731 18.2031C0.461731 22.2685 1.84967 26.2157 4.38929 29.3952L1.76107 35.4981C1.54452 36.0002 1.78076 36.5809 2.27294 36.7876C2.45012 36.8664 2.64699 36.8861 2.83402 36.8566L12.4708 35.1635C14.4001 35.8624 16.4279 36.2167 18.4754 36.2069C28.437 36.2069 36.5382 28.1057 36.5382 18.144C36.5579 8.21195 28.5157 0.140276 18.5836 0.130432ZM18.4852 34.248C16.5854 34.248 14.7053 33.9035 12.9236 33.2341C12.7563 33.1652 12.5791 33.1554 12.4019 33.1849L4.29086 34.6024L6.43674 29.6117C6.58439 29.2672 6.52533 28.8636 6.27925 28.5782C5.11771 27.2296 4.19242 25.694 3.54275 24.0305C2.81433 22.17 2.44028 20.1915 2.44028 18.1933C2.44028 9.31442 9.66541 2.09913 18.5344 2.09913C27.3837 2.07945 34.5695 9.23567 34.5793 18.085C34.5793 18.1047 34.5793 18.1244 34.5793 18.144C34.5793 27.0327 27.3542 34.248 18.4852 34.248Z" fill="black"/>
</svg>
